<svg xmlns="http://www.w3.org/2000/svg" viewBox="0 0 220 220">
  <!-- Ornamen floral klasik -- kelopak+daun bentuk dasar (ellipse), palet
       dusty blue. Komposisi condong ke sudut kiri-atas (lihat FloralCorner.vue). -->
  <g fill="none" stroke="#5D7A9A" stroke-width="1.1" opacity="0.55">
    <path d="M10 120 Q 40 60 90 40 Q 130 24 150 10" />
    <path d="M20 150 Q 55 95 100 75" />
    <path d="M35 170 Q 70 130 95 105" />
  </g>
  <g opacity="0.9">
    <ellipse cx="55" cy="55" rx="26" ry="18" fill="#EAF1F8" stroke="#5D7A9A" stroke-width="1.2" transform="rotate(20 55 55)" />
    <ellipse cx="70" cy="42" rx="20" ry="14" fill="#A9C0D9" opacity="0.5" stroke="#5D7A9A" stroke-width="1" transform="rotate(-15 70 42)" />
    <circle cx="60" cy="52" r="9" fill="#6B8CAE" opacity="0.6" />
  </g>
  <g opacity="0.85">
    <ellipse cx="105" cy="30" rx="14" ry="10" fill="#EAF1F8" stroke="#5D7A9A" stroke-width="1" transform="rotate(10 105 30)" />
    <circle cx="105" cy="30" r="5" fill="#6B8CAE" opacity="0.6" />
  </g>
  <g opacity="0.7">
    <ellipse cx="30" cy="95" rx="12" ry="9" fill="#EAF1F8" stroke="#5D7A9A" stroke-width="1" transform="rotate(-25 30 95)" />
    <circle cx="30" cy="95" r="4" fill="#6B8CAE" opacity="0.55" />
  </g>
  <g fill="#5D7A9A" opacity="0.35">
    <ellipse cx="45" cy="130" rx="7" ry="16" transform="rotate(35 45 130)" />
    <ellipse cx="80" cy="95" rx="6" ry="13" transform="rotate(-10 80 95)" />
    <ellipse cx="120" cy="55" rx="6" ry="13" transform="rotate(60 120 55)" />
  </g>
</svg>
